<?xml version="1.0" standalone="no"?>
<!DOCTYPE svg PUBLIC "-//W3C//DTD SVG 20010904//EN"
 "http://www.w3.org/TR/2001/REC-SVG-20010904/DTD/svg10.dtd">
<svg version="1.0" xmlns="http://www.w3.org/2000/svg"
 width="552.000000pt" height="592.000000pt" viewBox="0 0 552.000000 592.000000"
 preserveAspectRatio="xMidYMid meet">

<g transform="translate(0.000000,592.000000) scale(0.100000,-0.100000)"
fill="#000000" stroke="none">
<path d="M2619 5462 c-51 -27 -188 -105 -304 -172 -115 -67 -300 -174 -410
-238 -239 -137 -259 -151 -288 -205 l-22 -42 -3 -915 c-1 -503 1 -1095 6
-1315 l8 -400 32 -62 c26 -50 56 -83 164 -179 369 -327 645 -648 842 -979 l71
-120 3 180 c1 99 1 452 0 785 -3 705 6 646 -116 738 -99 75 -127 126 -127 232
0 62 5 85 28 132 34 69 101 131 164 152 54 19 160 21 213 5 67 -20 132 -78
169 -151 29 -57 33 -75 33 -137 -1 -113 -32 -162 -166 -265 -21 -16 -47 -47
-57 -70 -18 -39 -19 -80 -19 -825 l0 -785 63 110 c143 250 333 492 591 749
105 105 232 226 283 269 97 82 146 146 168 221 22 70 24 2605 3 2655 -19 44
-68 95 -117 119 -34 18 -304 174 -576 334 -66 38 -181 104 -255 146 -130 73
-138 76 -211 79 -74 4 -77 3 -170 -46z"/>
<path d="M4578 4508 c-1 -2 -5 -604 -8 -1338 l-5 -1335 -28 -57 c-32 -65 -50
-80 -212 -172 -335 -191 -714 -427 -859 -534 -313 -233 -530 -522 -652 -869
-16 -46 -31 -83 -34 -83 -3 0 -15 33 -28 73 -105 332 -391 699 -712 914 -41
27 -705 426 -890 534 -88 52 -134 107 -149 179 -8 35 -11 452 -11 1360 0 721
-3 1310 -6 1310 -12 0 -292 -155 -356 -197 -84 -55 -160 -139 -201 -223 l-32
-64 -6 -256 c-4 -140 -5 -712 -4 -1270 2 -994 3 -1017 22 -1060 38 -83 17 -70
1088 -692 253 -147 332 -192 890 -514 l310 -179 85 0 85 0 170 99 c94 54 211
122 260 151 50 29 216 126 370 215 154 90 379 221 500 293 121 71 297 175 390
230 488 286 535 317 566 364 15 25 33 69 39 97 8 36 10 421 8 1316 l-3 1265
-22 47 c-42 91 -99 138 -333 273 -201 116 -226 129 -232 123z"/>
</g>
</svg>
