<svg width="101" height="17" viewBox="0 0 101 17" fill="none" xmlns="http://www.w3.org/2000/svg">
<path d="M10.0038 1.45459H12.6387V10.9574C12.6387 11.9991 12.3925 12.9153 11.9001 13.706C11.4124 14.4967 10.7258 15.1146 9.8404 15.5597C8.95498 16 7.92042 16.2202 6.73671 16.2202C5.54826 16.2202 4.51133 16 3.62591 15.5597C2.74049 15.1146 2.05394 14.4967 1.56625 13.706C1.07856 12.9153 0.834717 11.9991 0.834717 10.9574V1.45459H3.46966V10.7373C3.46966 11.3433 3.60224 11.8831 3.86739 12.3566C4.13727 12.8301 4.51606 13.2017 5.00375 13.4716C5.49144 13.7368 6.06909 13.8694 6.73671 13.8694C7.40432 13.8694 7.98197 13.7368 8.46966 13.4716C8.96208 13.2017 9.34087 12.8301 9.60602 12.3566C9.87118 11.8831 10.0038 11.3433 10.0038 10.7373V1.45459Z" fill="#101828"/>
<path d="M17.9601 9.608V16H15.389V5.09095H17.8464V6.94465H17.9743C18.2252 6.33385 18.6253 5.84853 19.1746 5.48868C19.7285 5.12883 20.4127 4.94891 21.2271 4.94891C21.98 4.94891 22.6357 5.10989 23.1944 5.43186C23.7579 5.75383 24.1935 6.22022 24.5013 6.83101C24.8138 7.44181 24.9676 8.18281 24.9629 9.05402V16H22.3919V9.45175C22.3919 8.72258 22.2025 8.15203 21.8237 7.7401C21.4497 7.32817 20.9312 7.1222 20.2683 7.1222C19.8185 7.1222 19.4184 7.22163 19.068 7.4205C18.7224 7.61463 18.4501 7.89635 18.2513 8.26567C18.0571 8.63499 17.9601 9.08243 17.9601 9.608Z" fill="#101828"/>
<path d="M33.024 5.09095V7.07959H26.7527V5.09095H33.024ZM28.301 2.47732H30.872V12.7188C30.872 13.0644 30.9241 13.3296 31.0283 13.5142C31.1372 13.6942 31.2792 13.8173 31.4544 13.8836C31.6296 13.9499 31.8237 13.983 32.0368 13.983C32.1978 13.983 32.3445 13.9712 32.4771 13.9475C32.6144 13.9238 32.7186 13.9025 32.7896 13.8836L33.2229 15.8935C33.0855 15.9409 32.889 15.9929 32.6334 16.0498C32.3824 16.1066 32.0747 16.1397 31.7101 16.1492C31.0661 16.1681 30.4861 16.0711 29.97 15.858C29.4539 15.6402 29.0444 15.304 28.7413 14.8495C28.443 14.3949 28.2962 13.8267 28.301 13.1449V2.47732Z" fill="#101828"/>
<path d="M35.1742 16V5.09095H37.7452V16H35.1742ZM36.4668 3.54266C36.0596 3.54266 35.7092 3.40772 35.4157 3.13783C35.1221 2.86321 34.9753 2.53413 34.9753 2.15061C34.9753 1.76235 35.1221 1.43328 35.4157 1.1634C35.7092 0.888775 36.0596 0.751465 36.4668 0.751465C36.8787 0.751465 37.2291 0.888775 37.518 1.1634C37.8115 1.43328 37.9583 1.76235 37.9583 2.15061C37.9583 2.53413 37.8115 2.86321 37.518 3.13783C37.2291 3.40772 36.8787 3.54266 36.4668 3.54266Z" fill="#101828"/>
<path d="M45.8365 5.09095V7.07959H39.5652V5.09095H45.8365ZM41.1135 2.47732H43.6845V12.7188C43.6845 13.0644 43.7366 13.3296 43.8408 13.5142C43.9497 13.6942 44.0917 13.8173 44.2669 13.8836C44.4421 13.9499 44.6362 13.983 44.8493 13.983C45.0103 13.983 45.157 13.9712 45.2896 13.9475C45.4269 13.9238 45.5311 13.9025 45.6021 13.8836L46.0354 15.8935C45.898 15.9409 45.7015 15.9929 45.4459 16.0498C45.1949 16.1066 44.8872 16.1397 44.5226 16.1492C43.8786 16.1681 43.2986 16.0711 42.7825 15.858C42.2664 15.6402 41.8569 15.304 41.5538 14.8495C41.2555 14.3949 41.1087 13.8267 41.1135 13.1449V2.47732Z" fill="#101828"/>
<path d="M50.7921 1.45459V16H48.2211V1.45459H50.7921Z" fill="#101828"/>
<path d="M58.2655 16.2131C57.1717 16.2131 56.2271 15.9858 55.4317 15.5313C54.6409 15.072 54.0325 14.4233 53.6064 13.5853C53.1802 12.7425 52.9672 11.7505 52.9672 10.6094C52.9672 9.48726 53.1802 8.50241 53.6064 7.65487C54.0373 6.8026 54.6386 6.13972 55.4104 5.66624C56.1821 5.18802 57.0889 4.94891 58.1305 4.94891C58.8029 4.94891 59.4373 5.05781 60.0339 5.27561C60.6353 5.48868 61.1656 5.82012 61.6248 6.26993C62.0889 6.71974 62.4534 7.29266 62.7186 7.98868C62.9837 8.67997 63.1163 9.50383 63.1163 10.4603V11.2486H54.1746V9.51567H60.6518C60.6471 9.02324 60.5406 8.58527 60.3322 8.20175C60.1239 7.81349 59.8327 7.50809 59.4587 7.28556C59.0893 7.06302 58.6585 6.95175 58.166 6.95175C57.6405 6.95175 57.1788 7.07959 56.7811 7.33527C56.3834 7.58622 56.0732 7.91766 55.8507 8.32959C55.6329 8.73679 55.5216 9.18423 55.5169 9.67192V11.1847C55.5169 11.8192 55.6329 12.3637 55.8649 12.8182C56.0969 13.268 56.4212 13.6137 56.8379 13.8552C57.2546 14.0919 57.7423 14.2103 58.301 14.2103C58.675 14.2103 59.0136 14.1582 59.3166 14.054C59.6196 13.9451 59.8824 13.7865 60.105 13.5782C60.3275 13.3698 60.4956 13.1118 60.6092 12.804L63.0098 13.0739C62.8583 13.7084 62.5695 14.2624 62.1433 14.7358C61.7219 15.2046 61.1821 15.5692 60.524 15.8296C59.8658 16.0853 59.113 16.2131 58.2655 16.2131Z" fill="#101828"/>
<path d="M69.3397 16.1918C68.4827 16.1918 67.7156 15.9716 67.0386 15.5313C66.3615 15.091 65.8264 14.4517 65.4334 13.6137C65.0404 12.7756 64.8439 11.7576 64.8439 10.5597C64.8439 9.34758 65.0428 8.32486 65.4405 7.49152C65.843 6.65345 66.3851 6.02135 67.067 5.59521C67.7488 5.16434 68.5087 4.94891 69.3468 4.94891C69.986 4.94891 70.5116 5.05781 70.9235 5.27561C71.3354 5.48868 71.6621 5.74673 71.9036 6.04976C72.1451 6.34806 72.3321 6.62978 72.4647 6.89493H72.5712V1.45459H75.1493V16H72.6209V14.2813H72.4647C72.3321 14.5464 72.1404 14.8282 71.8894 15.1265C71.6385 15.42 71.307 15.671 70.8951 15.8793C70.4831 16.0876 69.9647 16.1918 69.3397 16.1918ZM70.057 14.0824C70.6015 14.0824 71.0655 13.9357 71.4491 13.6421C71.8326 13.3438 72.1238 12.9295 72.3226 12.3992C72.5215 11.8689 72.6209 11.251 72.6209 10.5455C72.6209 9.84001 72.5215 9.22684 72.3226 8.70601C72.1285 8.18518 71.8397 7.78035 71.4562 7.49152C71.0774 7.2027 70.611 7.05828 70.057 7.05828C69.4841 7.05828 69.0059 7.20743 68.6224 7.50573C68.2388 7.80402 67.95 8.21595 67.7559 8.74152C67.5618 9.26709 67.4647 9.86842 67.4647 10.5455C67.4647 11.2273 67.5618 11.8357 67.7559 12.3708C67.9547 12.9011 68.2459 13.3201 68.6295 13.6279C69.0177 13.9309 69.4936 14.0824 70.057 14.0824Z" fill="#101828"/>
<path d="M92.1327 1.45459H94.7676V10.9574C94.7676 11.9991 94.5214 12.9153 94.029 13.706C93.5413 14.4967 92.8547 15.1146 91.9693 15.5597C91.0839 16 90.0493 16.2202 88.8656 16.2202C87.6772 16.2202 86.6402 16 85.7548 15.5597C84.8694 15.1146 84.1828 14.4967 83.6952 13.706C83.2075 12.9153 82.9636 11.9991 82.9636 10.9574V1.45459H85.5986V10.7373C85.5986 11.3433 85.7311 11.8831 85.9963 12.3566C86.2662 12.8301 86.645 13.2017 87.1327 13.4716C87.6203 13.7368 88.198 13.8694 88.8656 13.8694C89.5332 13.8694 90.1109 13.7368 90.5986 13.4716C91.091 13.2017 91.4698 12.8301 91.7349 12.3566C92.0001 11.8831 92.1327 11.3433 92.1327 10.7373V1.45459Z" fill="#101828"/>
<path d="M100.267 1.45459V16H97.6316V1.45459H100.267Z" fill="#101828"/>
</svg>
